<?xml version="1.0" encoding="UTF-8" standalone="no"?>
<!DOCTYPE svg PUBLIC "-//W3C//DTD SVG 1.0//EN" "http://www.w3.org/TR/2001/PR-SVG-20010719/DTD/svg10.dtd">
<svg viewBox="-242 -41 1149 988" xmlns="http://www.w3.org/2000/svg" xmlns:xlink="http://www.w3.org/1999/xlink">
  <g>
    <ellipse style="fill: #ffffff" cx="197" cy="145" rx="6" ry="6"/>
    <ellipse style="fill: none; fill-opacity:0; stroke-width: 2; stroke: #000000" cx="197" cy="145" rx="6" ry="6"/>
    <line style="fill: none; fill-opacity:0; stroke-width: 2; stroke: #000000" x1="173" y1="157" x2="221" y2="157"/>
    <line style="fill: none; fill-opacity:0; stroke-width: 2; stroke: #000000" x1="197" y1="151" x2="197" y2="181"/>
    <line style="fill: none; fill-opacity:0; stroke-width: 2; stroke: #000000" x1="197" y1="181" x2="173" y2="207"/>
    <line style="fill: none; fill-opacity:0; stroke-width: 2; stroke: #000000" x1="197" y1="181" x2="221" y2="207"/>
    <text style="fill: #000000;text-anchor:middle;font-size:12.7998;font-family:sanserif;font-style:normal;font-weight:normal" x="197" y="230.9">
      <tspan x="197" y="230.9">Utilisateur</tspan>
    </text>
  </g>
  <g>
    <ellipse style="fill: #ffffff" cx="329.7" cy="-5.76667" rx="99.7" ry="33.2333"/>
    <ellipse style="fill: none; fill-opacity:0; stroke-width: 2; stroke: #000000" cx="329.7" cy="-5.76667" rx="99.7" ry="33.2333"/>
    <text style="fill: #000000;text-anchor:middle;font-size:12.7998;font-family:sanserif;font-style:normal;font-weight:normal" x="329.7" y="-9.86667">
      <tspan x="329.7" y="-9.86667">Lire le planning </tspan>
      <tspan x="329.7" y="6.13333">d'une université</tspan>
    </text>
  </g>
  <g>
    <path style="fill: none; fill-opacity:0; stroke-width: 2; stroke: #000000" d="M 264.775,35.7487 A 213.852,213.852 0 0 0 207.211,126.008"/>
    <polygon style="fill: #000000" points="267.799,39.3703 272.239,29.1097 261.366,31.7135 "/>
    <polygon style="fill: none; fill-opacity:0; stroke-width: 2; stroke: #000000" points="267.799,39.3703 272.239,29.1097 261.366,31.7135 "/>
  </g>
  <text style="fill: #000000;text-anchor:start;font-size:12.8;font-family:sanserif;font-style:normal;font-weight:normal" x="329.7" y="-5.76667">
    <tspan x="329.7" y="-5.76667"></tspan>
  </text>
  <text style="fill: #000000;text-anchor:start;font-size:12.8;font-family:sanserif;font-style:normal;font-weight:normal" x="329.7" y="-5.76667">
    <tspan x="329.7" y="-5.76667"></tspan>
  </text>
  <g>
    <ellipse style="fill: #ffffff" cx="416.525" cy="83.0417" rx="97.325" ry="32.4417"/>
    <ellipse style="fill: none; fill-opacity:0; stroke-width: 2; stroke: #000000" cx="416.525" cy="83.0417" rx="97.325" ry="32.4417"/>
    <text style="fill: #000000;text-anchor:middle;font-size:12.7998;font-family:sanserif;font-style:normal;font-weight:normal" x="416.525" y="78.9417">
      <tspan x="416.525" y="78.9417">Lire le planning</tspan>
      <tspan x="416.525" y="94.9417">d'un campus</tspan>
    </text>
  </g>
  <g>
    <ellipse style="fill: #ffffff" cx="425.75" cy="161.317" rx="99.35" ry="33.1167"/>
    <ellipse style="fill: none; fill-opacity:0; stroke-width: 2; stroke: #000000" cx="425.75" cy="161.317" rx="99.35" ry="33.1167"/>
    <text style="fill: #000000;text-anchor:middle;font-size:12.7998;font-family:sanserif;font-style:normal;font-weight:normal" x="425.75" y="157.217">
      <tspan x="425.75" y="157.217">Lire le planning </tspan>
      <tspan x="425.75" y="173.217">d'une classe</tspan>
    </text>
  </g>
  <g>
    <ellipse style="fill: #ffffff" cx="429.1" cy="243.9" rx="78.9" ry="26.3"/>
    <ellipse style="fill: none; fill-opacity:0; stroke-width: 2; stroke: #000000" cx="429.1" cy="243.9" rx="78.9" ry="26.3"/>
    <text style="fill: #000000;text-anchor:middle;font-size:12.7998;font-family:sanserif;font-style:normal;font-weight:normal" x="429.1" y="247.8">
      <tspan x="429.1" y="247.8">Lire son planning</tspan>
    </text>
  </g>
  <g>
    <ellipse style="fill: #ffffff" cx="419.5" cy="312.9" rx="86.1" ry="28.7"/>
    <ellipse style="fill: none; fill-opacity:0; stroke-width: 2; stroke: #000000" cx="419.5" cy="312.9" rx="86.1" ry="28.7"/>
    <text style="fill: #000000;text-anchor:middle;font-size:12.7998;font-family:sanserif;font-style:normal;font-weight:normal" x="419.5" y="316.8">
      <tspan x="419.5" y="316.8">Editer son planning</tspan>
    </text>
  </g>
  <g>
    <ellipse style="fill: #ffffff" cx="143" cy="41" rx="6" ry="6"/>
    <ellipse style="fill: none; fill-opacity:0; stroke-width: 2; stroke: #000000" cx="143" cy="41" rx="6" ry="6"/>
    <line style="fill: none; fill-opacity:0; stroke-width: 2; stroke: #000000" x1="119" y1="53" x2="167" y2="53"/>
    <line style="fill: none; fill-opacity:0; stroke-width: 2; stroke: #000000" x1="143" y1="47" x2="143" y2="77"/>
    <line style="fill: none; fill-opacity:0; stroke-width: 2; stroke: #000000" x1="143" y1="77" x2="119" y2="103"/>
    <line style="fill: none; fill-opacity:0; stroke-width: 2; stroke: #000000" x1="143" y1="77" x2="167" y2="103"/>
    <text style="fill: #000000;text-anchor:middle;font-size:12.7998;font-family:sanserif;font-style:normal;font-weight:normal" x="143" y="126.9">
      <tspan x="143" y="126.9">Etudiant</tspan>
    </text>
  </g>
  <g>
    <polyline style="fill: none; fill-opacity:0; stroke-width: 2; stroke: #000000" points="197,107.769 197,13.9546 143,13.9546 143,23 "/>
    <polygon style="fill: #ffffff" points="189,107.769 197,123.769 205,107.769 "/>
    <polygon style="fill: none; fill-opacity:0; stroke-width: 2; stroke: #000000" points="189,107.769 197,123.769 205,107.769 "/>
  </g>
  <g>
    <path style="fill: none; fill-opacity:0; stroke-width: 2; stroke: #000000" d="M 229.867,218.572 A 339.751,339.751 0 0 0 322.41,283.453"/>
    <polygon style="fill: #000000" points="320.332,288.195 331.497,287.618 324.336,279.032 "/>
    <polygon style="fill: none; fill-opacity:0; stroke-width: 2; stroke: #000000" points="320.332,288.195 331.497,287.618 324.336,279.032 "/>
  </g>
  <g>
    <path style="fill: none; fill-opacity:0; stroke-width: 2; stroke: #000000" d="M 307.796,95.7087 A 233.75,233.75 0 0 0 229.88,143.368"/>
    <polygon style="fill: #000000" points="309.21,100.235 317.245,92.4602 306.204,90.6971 "/>
    <polygon style="fill: none; fill-opacity:0; stroke-width: 2; stroke: #000000" points="309.21,100.235 317.245,92.4602 306.204,90.6971 "/>
  </g>
  <g>
    <path style="fill: none; fill-opacity:0; stroke-width: 2; stroke: #000000" d="M 314.54,170.166 A 9178.24,9178.24 0 0 0 229.877,177.816"/>
    <polygon style="fill: #000000" points="314.96,175.142 324.503,169.318 314.118,165.177 "/>
    <polygon style="fill: none; fill-opacity:0; stroke-width: 2; stroke: #000000" points="314.96,175.142 324.503,169.318 314.118,165.177 "/>
  </g>
  <g>
    <path style="fill: none; fill-opacity:0; stroke-width: 2; stroke: #000000" d="M 229.831,194.227 A 869.788,869.788 0 0 0 338.475,227.509"/>
    <polygon style="fill: #000000" points="337.372,232.457 348.22,229.752 339.547,222.696 "/>
    <polygon style="fill: none; fill-opacity:0; stroke-width: 2; stroke: #000000" points="337.372,232.457 348.22,229.752 339.547,222.696 "/>
  </g>
  <g>
    <ellipse style="fill: #ffffff" cx="413.625" cy="391.642" rx="103.025" ry="34.3417"/>
    <ellipse style="fill: none; fill-opacity:0; stroke-width: 2; stroke: #000000" cx="413.625" cy="391.642" rx="103.025" ry="34.3417"/>
    <text style="fill: #000000;text-anchor:middle;font-size:12.7998;font-family:sanserif;font-style:normal;font-weight:normal" x="413.625" y="387.542">
      <tspan x="413.625" y="387.542">Voir les périodes </tspan>
      <tspan x="413.625" y="403.542">d'études</tspan>
    </text>
  </g>
  <g>
    <path style="fill: none; fill-opacity:0; stroke-width: 2; stroke: #000000" d="M 220.298,236.008 A 319.602,319.602 0 0 0 324.422,350.361"/>
    <polygon style="fill: #000000" points="321.689,354.772 332.825,355.774 326.945,346.265 "/>
    <polygon style="fill: none; fill-opacity:0; stroke-width: 2; stroke: #000000" points="321.689,354.772 332.825,355.774 326.945,346.265 "/>
  </g>
  <g>
    <ellipse style="fill: #ffffff" cx="494.76" cy="466.11" rx="6" ry="6"/>
    <ellipse style="fill: none; fill-opacity:0; stroke-width: 2; stroke: #000000" cx="494.76" cy="466.11" rx="6" ry="6"/>
    <line style="fill: none; fill-opacity:0; stroke-width: 2; stroke: #000000" x1="470.76" y1="478.11" x2="518.76" y2="478.11"/>
    <line style="fill: none; fill-opacity:0; stroke-width: 2; stroke: #000000" x1="494.76" y1="472.11" x2="494.76" y2="502.11"/>
    <line style="fill: none; fill-opacity:0; stroke-width: 2; stroke: #000000" x1="494.76" y1="502.11" x2="470.76" y2="528.11"/>
    <line style="fill: none; fill-opacity:0; stroke-width: 2; stroke: #000000" x1="494.76" y1="502.11" x2="518.76" y2="528.11"/>
    <text style="fill: #000000;text-anchor:middle;font-size:12.7998;font-family:sanserif;font-style:normal;font-weight:normal" x="494.76" y="552.01">
      <tspan x="494.76" y="552.01">Cursus</tspan>
      <tspan x="494.76" y="568.01">Manager</tspan>
    </text>
  </g>
  <g>
    <ellipse style="fill: #ffffff" cx="547.73" cy="650.35" rx="62.05" ry="32"/>
    <ellipse style="fill: none; fill-opacity:0; stroke-width: 2; stroke: #000000" cx="547.73" cy="650.35" rx="62.05" ry="32"/>
    <text style="fill: #000000;text-anchor:middle;font-size:12.7998;font-family:sanserif;font-style:normal;font-weight:normal" x="547.73" y="646.25">
      <tspan x="547.73" y="646.25">Ajouter </tspan>
      <tspan x="547.73" y="662.25">un cursus</tspan>
    </text>
  </g>
  <g>
    <ellipse style="fill: #ffffff" cx="691.53" cy="475.49" rx="62.05" ry="32"/>
    <ellipse style="fill: none; fill-opacity:0; stroke-width: 2; stroke: #000000" cx="691.53" cy="475.49" rx="62.05" ry="32"/>
    <text style="fill: #000000;text-anchor:middle;font-size:12.7998;font-family:sanserif;font-style:normal;font-weight:normal" x="691.53" y="471.39">
      <tspan x="691.53" y="471.39">Modifier </tspan>
      <tspan x="691.53" y="487.39">un cursus</tspan>
    </text>
  </g>
  <g>
    <ellipse style="fill: #ffffff" cx="834.76" cy="510.83" rx="71" ry="32"/>
    <ellipse style="fill: none; fill-opacity:0; stroke-width: 2; stroke: #000000" cx="834.76" cy="510.83" rx="71" ry="32"/>
    <text style="fill: #000000;text-anchor:middle;font-size:12.7998;font-family:sanserif;font-style:normal;font-weight:normal" x="834.76" y="506.73">
      <tspan x="834.76" y="506.73">Supprimer </tspan>
      <tspan x="834.76" y="522.73">un cursus</tspan>
    </text>
  </g>
  <g>
    <path style="fill: none; fill-opacity:0; stroke-width: 2; stroke: #000000" d="M 617.573,483.191 A 2023.32,2023.32 0 0 0 522.839,497.102"/>
    <polygon style="fill: #000000" points="618.152,488.127 627.502,481.997 616.988,478.195 "/>
    <polygon style="fill: none; fill-opacity:0; stroke-width: 2; stroke: #000000" points="618.152,488.127 627.502,481.997 616.988,478.195 "/>
  </g>
  <g>
    <path style="fill: none; fill-opacity:0; stroke-width: 2; stroke: #000000" d="M 497.682,571.038 A 158.257,158.257 0 0 0 512.814,607.996"/>
    <polygon style="fill: #000000" points="508.312,610.943 518,616.524 516.652,605.425 "/>
    <polygon style="fill: none; fill-opacity:0; stroke-width: 2; stroke: #000000" points="508.312,610.943 518,616.524 516.652,605.425 "/>
  </g>
  <g>
    <ellipse style="fill: #ffffff" cx="778.71" cy="586.528" rx="98.75" ry="32.9167"/>
    <ellipse style="fill: none; fill-opacity:0; stroke-width: 2; stroke: #000000" cx="778.71" cy="586.528" rx="98.75" ry="32.9167"/>
    <text style="fill: #000000;text-anchor:middle;font-size:12.7998;font-family:sanserif;font-style:normal;font-weight:normal" x="778.71" y="582.428">
      <tspan x="778.71" y="582.428">Ajouter une</tspan>
      <tspan x="778.71" y="598.428">période d'étude</tspan>
    </text>
  </g>
  <g>
    <ellipse style="fill: #ffffff" cx="753.31" cy="661.828" rx="98.75" ry="32.9167"/>
    <ellipse style="fill: none; fill-opacity:0; stroke-width: 2; stroke: #000000" cx="753.31" cy="661.828" rx="98.75" ry="32.9167"/>
    <text style="fill: #000000;text-anchor:middle;font-size:12.7998;font-family:sanserif;font-style:normal;font-weight:normal" x="753.31" y="657.728">
      <tspan x="753.31" y="657.728">Supprimer une</tspan>
      <tspan x="753.31" y="673.728">période d'étude</tspan>
    </text>
  </g>
  <g>
    <path style="fill: none; fill-opacity:0; stroke-width: 2; stroke: #000000" d="M 522.828,513.365 A 447.847,447.847 0 0 0 751.951,533.555"/>
    <polygon style="fill: #000000" points="752.95,538.592 761.782,531.737 750.999,528.784 "/>
    <polygon style="fill: none; fill-opacity:0; stroke-width: 2; stroke: #000000" points="752.95,538.592 761.782,531.737 750.999,528.784 "/>
  </g>
  <g>
    <path style="fill: none; fill-opacity:0; stroke-width: 2; stroke: #000000" d="M 522.833,518.495 A 558.462,558.462 0 0 0 668.236,573.169"/>
    <polygon style="fill: #000000" points="667.217,578.175 678.012,575.266 669.208,568.375 "/>
    <polygon style="fill: none; fill-opacity:0; stroke-width: 2; stroke: #000000" points="667.217,578.175 678.012,575.266 669.208,568.375 "/>
  </g>
  <g>
    <path style="fill: none; fill-opacity:0; stroke-width: 2; stroke: #000000" d="M 522.84,536.2 A 406.928,406.928 0 0 0 643.621,626.351"/>
    <polygon style="fill: #000000" points="641.48,631.034 652.654,630.635 645.63,621.936 "/>
    <polygon style="fill: none; fill-opacity:0; stroke-width: 2; stroke: #000000" points="641.48,631.034 652.654,630.635 645.63,621.936 "/>
  </g>
  <g>
    <ellipse style="fill: #ffffff" cx="694.69" cy="394.561" rx="98.75" ry="32.9167"/>
    <ellipse style="fill: none; fill-opacity:0; stroke-width: 2; stroke: #000000" cx="694.69" cy="394.561" rx="98.75" ry="32.9167"/>
    <text style="fill: #000000;text-anchor:middle;font-size:12.7998;font-family:sanserif;font-style:normal;font-weight:normal" x="694.69" y="390.461">
      <tspan x="694.69" y="390.461">Modifier une</tspan>
      <tspan x="694.69" y="406.461">période d'étude</tspan>
    </text>
  </g>
  <g>
    <path style="fill: none; fill-opacity:0; stroke-width: 2; stroke: #000000" d="M 585.136,427.735 A 295.294,295.294 0 0 0 522.824,472.124"/>
    <polygon style="fill: #000000" points="587.223,432.052 594.036,423.188 582.856,423.056 "/>
    <polygon style="fill: none; fill-opacity:0; stroke-width: 2; stroke: #000000" points="587.223,432.052 594.036,423.188 582.856,423.056 "/>
  </g>
  <g>
    <ellipse style="fill: #ffffff" cx="65.72" cy="551.875" rx="6" ry="6"/>
    <ellipse style="fill: none; fill-opacity:0; stroke-width: 2; stroke: #000000" cx="65.72" cy="551.875" rx="6" ry="6"/>
    <line style="fill: none; fill-opacity:0; stroke-width: 2; stroke: #000000" x1="41.72" y1="563.875" x2="89.72" y2="563.875"/>
    <line style="fill: none; fill-opacity:0; stroke-width: 2; stroke: #000000" x1="65.72" y1="557.875" x2="65.72" y2="587.875"/>
    <line style="fill: none; fill-opacity:0; stroke-width: 2; stroke: #000000" x1="65.72" y1="587.875" x2="41.72" y2="613.875"/>
    <line style="fill: none; fill-opacity:0; stroke-width: 2; stroke: #000000" x1="65.72" y1="587.875" x2="89.72" y2="613.875"/>
    <text style="fill: #000000;text-anchor:middle;font-size:12.7998;font-family:sanserif;font-style:normal;font-weight:normal" x="65.72" y="637.775">
      <tspan x="65.72" y="637.775">Class</tspan>
      <tspan x="65.72" y="653.775">Manager</tspan>
    </text>
  </g>
  <g>
    <ellipse style="fill: #ffffff" cx="-125.86" cy="532.275" rx="79.7" ry="48"/>
    <ellipse style="fill: none; fill-opacity:0; stroke-width: 2; stroke: #000000" cx="-125.86" cy="532.275" rx="79.7" ry="48"/>
    <text style="fill: #000000;text-anchor:middle;font-size:12.7998;font-family:sanserif;font-style:normal;font-weight:normal" x="-125.86" y="520.175">
      <tspan x="-125.86" y="520.175">Ajouter des</tspan>
      <tspan x="-125.86" y="536.175">Evenements</tspan>
      <tspan x="-125.86" y="552.175">à une classe</tspan>
    </text>
  </g>
  <g>
    <ellipse style="fill: #ffffff" cx="-123.28" cy="633.315" rx="82.6" ry="48"/>
    <ellipse style="fill: none; fill-opacity:0; stroke-width: 2; stroke: #000000" cx="-123.28" cy="633.315" rx="82.6" ry="48"/>
    <text style="fill: #000000;text-anchor:middle;font-size:12.7998;font-family:sanserif;font-style:normal;font-weight:normal" x="-123.28" y="621.215">
      <tspan x="-123.28" y="621.215">Modifier des </tspan>
      <tspan x="-123.28" y="637.215">Evenements</tspan>
      <tspan x="-123.28" y="653.215">d'une classe</tspan>
    </text>
  </g>
  <g>
    <ellipse style="fill: #ffffff" cx="-42.15" cy="730.575" rx="97.75" ry="48"/>
    <ellipse style="fill: none; fill-opacity:0; stroke-width: 2; stroke: #000000" cx="-42.15" cy="730.575" rx="97.75" ry="48"/>
    <text style="fill: #000000;text-anchor:middle;font-size:12.7998;font-family:sanserif;font-style:normal;font-weight:normal" x="-42.15" y="718.475">
      <tspan x="-42.15" y="718.475">Supprimer des </tspan>
      <tspan x="-42.15" y="734.475">Evenements</tspan>
      <tspan x="-42.15" y="750.475">d'une classe</tspan>
    </text>
  </g>
  <g>
    <path style="fill: none; fill-opacity:0; stroke-width: 2; stroke: #000000" d="M 37.6407,556.504 A 156.018,156.018 0 0 0 -34.3036,522.031"/>
    <polygon style="fill: #000000" points="-33.6429,516.686 -44.1617,520.475 -34.8193,526.616 "/>
    <polygon style="fill: none; fill-opacity:0; stroke-width: 2; stroke: #000000" points="-33.6429,516.686 -44.1617,520.475 -34.8193,526.616 "/>
  </g>
  <g>
    <path style="fill: none; fill-opacity:0; stroke-width: 2; stroke: #000000" d="M 37.687,578.24 A 158.375,158.375 0 0 0 -45.9866,580.761"/>
    <polygon style="fill: #000000" points="-47.8923,575.729 -55.4328,583.984 -44.3048,585.063 "/>
    <polygon style="fill: none; fill-opacity:0; stroke-width: 2; stroke: #000000" points="-47.8923,575.729 -55.4328,583.984 -44.3048,585.063 "/>
  </g>
  <g>
    <path style="fill: none; fill-opacity:0; stroke-width: 2; stroke: #000000" d="M 37.6452,608.574 A 256.451,256.451 0 0 0 -16.2731,672.026"/>
    <polygon style="fill: #000000" points="-20.8669,669.514 -21.2556,680.687 -12.0835,674.294 "/>
    <polygon style="fill: none; fill-opacity:0; stroke-width: 2; stroke: #000000" points="-20.8669,669.514 -21.2556,680.687 -12.0835,674.294 "/>
  </g>
  <g>
    <polyline style="fill: none; fill-opacity:0; stroke-width: 2; stroke: #000000" points="197,254.235 197,393.675 65.72,393.675 65.72,532.871 "/>
    <polygon style="fill: #ffffff" points="205,254.235 197,238.235 189,254.235 "/>
    <polygon style="fill: none; fill-opacity:0; stroke-width: 2; stroke: #000000" points="205,254.235 197,238.235 189,254.235 "/>
  </g>
  <g>
    <polyline style="fill: none; fill-opacity:0; stroke-width: 2; stroke: #000000" points="197,254.117 197,453.148 494.2,453.148 494.2,502.11 494.76,502.11 "/>
    <polygon style="fill: #ffffff" points="205,254.117 197,238.117 189,254.117 "/>
    <polygon style="fill: none; fill-opacity:0; stroke-width: 2; stroke: #000000" points="205,254.117 197,238.117 189,254.117 "/>
  </g>
  <g>
    <ellipse style="fill: #ffffff" cx="70" cy="42.4546" rx="6" ry="6"/>
    <ellipse style="fill: none; fill-opacity:0; stroke-width: 2; stroke: #000000" cx="70" cy="42.4546" rx="6" ry="6"/>
    <line style="fill: none; fill-opacity:0; stroke-width: 2; stroke: #000000" x1="46" y1="54.4546" x2="94" y2="54.4546"/>
    <line style="fill: none; fill-opacity:0; stroke-width: 2; stroke: #000000" x1="70" y1="48.4546" x2="70" y2="78.4546"/>
    <line style="fill: none; fill-opacity:0; stroke-width: 2; stroke: #000000" x1="70" y1="78.4546" x2="46" y2="104.455"/>
    <line style="fill: none; fill-opacity:0; stroke-width: 2; stroke: #000000" x1="70" y1="78.4546" x2="94" y2="104.455"/>
    <text style="fill: #000000;text-anchor:middle;font-size:12.7998;font-family:sanserif;font-style:normal;font-weight:normal" x="70" y="128.355">
      <tspan x="70" y="128.355">Professeur</tspan>
    </text>
  </g>
  <g>
    <polyline style="fill: none; fill-opacity:0; stroke-width: 2; stroke: #000000" points="145.89,181 18,181 18,78.4546 36.3701,78.4546 "/>
    <polygon style="fill: #ffffff" points="145.89,189 161.89,181 145.89,173 "/>
    <polygon style="fill: none; fill-opacity:0; stroke-width: 2; stroke: #000000" points="145.89,189 161.89,181 145.89,173 "/>
  </g>
  <g>
    <ellipse style="fill: #ffffff" cx="195.6" cy="551.734" rx="6" ry="6"/>
    <ellipse style="fill: none; fill-opacity:0; stroke-width: 2; stroke: #000000" cx="195.6" cy="551.734" rx="6" ry="6"/>
    <line style="fill: none; fill-opacity:0; stroke-width: 2; stroke: #000000" x1="171.6" y1="563.734" x2="219.6" y2="563.734"/>
    <line style="fill: none; fill-opacity:0; stroke-width: 2; stroke: #000000" x1="195.6" y1="557.734" x2="195.6" y2="587.734"/>
    <line style="fill: none; fill-opacity:0; stroke-width: 2; stroke: #000000" x1="195.6" y1="587.734" x2="171.6" y2="613.734"/>
    <line style="fill: none; fill-opacity:0; stroke-width: 2; stroke: #000000" x1="195.6" y1="587.734" x2="219.6" y2="613.734"/>
    <text style="fill: #000000;text-anchor:middle;font-size:12.7998;font-family:sanserif;font-style:normal;font-weight:normal" x="195.6" y="637.634">
      <tspan x="195.6" y="637.634">Campus</tspan>
      <tspan x="195.6" y="653.634">Manager</tspan>
    </text>
  </g>
  <g>
    <ellipse style="fill: #ffffff" cx="340.8" cy="517.094" rx="67.8" ry="32"/>
    <ellipse style="fill: none; fill-opacity:0; stroke-width: 2; stroke: #000000" cx="340.8" cy="517.094" rx="67.8" ry="32"/>
    <text style="fill: #000000;text-anchor:middle;font-size:12.7998;font-family:sanserif;font-style:normal;font-weight:normal" x="340.8" y="512.994">
      <tspan x="340.8" y="512.994">Ajouter </tspan>
      <tspan x="340.8" y="528.994">une classe</tspan>
    </text>
  </g>
  <g>
    <ellipse style="fill: #ffffff" cx="369.448" cy="591.694" rx="71" ry="32"/>
    <ellipse style="fill: none; fill-opacity:0; stroke-width: 2; stroke: #000000" cx="369.448" cy="591.694" rx="71" ry="32"/>
    <text style="fill: #000000;text-anchor:middle;font-size:12.7998;font-family:sanserif;font-style:normal;font-weight:normal" x="369.448" y="587.594">
      <tspan x="369.448" y="587.594">Supprimer </tspan>
      <tspan x="369.448" y="603.594">une classe</tspan>
    </text>
  </g>
  <g>
    <ellipse style="fill: #ffffff" cx="371.368" cy="669.774" rx="67.8" ry="32"/>
    <ellipse style="fill: none; fill-opacity:0; stroke-width: 2; stroke: #000000" cx="371.368" cy="669.774" rx="67.8" ry="32"/>
    <text style="fill: #000000;text-anchor:middle;font-size:12.7998;font-family:sanserif;font-style:normal;font-weight:normal" x="371.368" y="665.674">
      <tspan x="371.368" y="665.674">Editer</tspan>
      <tspan x="371.368" y="681.674">une classe</tspan>
    </text>
  </g>
  <g>
    <path style="fill: none; fill-opacity:0; stroke-width: 2; stroke: #000000" d="M 261.741,524.729 A 130.865,130.865 0 0 0 223.675,549.63"/>
    <polygon style="fill: #000000" points="263.136,529.049 271.049,521.152 259.983,519.559 "/>
    <polygon style="fill: none; fill-opacity:0; stroke-width: 2; stroke: #000000" points="263.136,529.049 271.049,521.152 259.983,519.559 "/>
  </g>
  <g>
    <path style="fill: none; fill-opacity:0; stroke-width: 2; stroke: #000000" d="M 223.674,591.058 A 767.541,767.541 0 0 0 286.451,594.734"/>
    <polygon style="fill: #000000" points="286.434,599.813 296.45,594.845 286.466,589.813 "/>
    <polygon style="fill: none; fill-opacity:0; stroke-width: 2; stroke: #000000" points="286.434,599.813 296.45,594.845 286.466,589.813 "/>
  </g>
  <g>
    <path style="fill: none; fill-opacity:0; stroke-width: 2; stroke: #000000" d="M 223.667,614.628 A 245.156,245.156 0 0 0 292.205,654.113"/>
    <polygon style="fill: #000000" points="290.565,659.097 301.623,657.45 293.67,649.591 "/>
    <polygon style="fill: none; fill-opacity:0; stroke-width: 2; stroke: #000000" points="290.565,659.097 301.623,657.45 293.67,649.591 "/>
  </g>
  <g>
    <ellipse style="fill: #ffffff" cx="314.85" cy="793.444" rx="80.25" ry="26.75"/>
    <ellipse style="fill: none; fill-opacity:0; stroke-width: 2; stroke: #000000" cx="314.85" cy="793.444" rx="80.25" ry="26.75"/>
    <text style="fill: #000000;text-anchor:middle;font-size:12.7998;font-family:sanserif;font-style:normal;font-weight:normal" x="314.85" y="797.344">
      <tspan x="314.85" y="797.344">Editer un campus</tspan>
    </text>
  </g>
  <g>
    <path style="fill: none; fill-opacity:0; stroke-width: 2; stroke: #000000" d="M 216.271,656.69 A 363.357,363.357 0 0 0 278.712,757.531"/>
    <polygon style="fill: #000000" points="274.923,761.043 285.393,764.967 282.25,754.237 "/>
    <polygon style="fill: none; fill-opacity:0; stroke-width: 2; stroke: #000000" points="274.923,761.043 285.393,764.967 282.25,754.237 "/>
  </g>
  <g>
    <ellipse style="fill: #ffffff" cx="516.04" cy="741.84" rx="47.2" ry="31.4667"/>
    <ellipse style="fill: none; fill-opacity:0; stroke-width: 2; stroke: #000000" cx="516.04" cy="741.84" rx="47.2" ry="31.4667"/>
    <text style="fill: #000000;text-anchor:middle;font-size:12.7998;font-family:sanserif;font-style:normal;font-weight:normal" x="516.04" y="737.74">
      <tspan x="516.04" y="737.74">Ajouter</tspan>
      <tspan x="516.04" y="753.74">un lieu</tspan>
    </text>
  </g>
  <g>
    <ellipse style="fill: #ffffff" cx="508.05" cy="826.854" rx="55.85" ry="32"/>
    <ellipse style="fill: none; fill-opacity:0; stroke-width: 2; stroke: #000000" cx="508.05" cy="826.854" rx="55.85" ry="32"/>
    <text style="fill: #000000;text-anchor:middle;font-size:12.7998;font-family:sanserif;font-style:normal;font-weight:normal" x="508.05" y="822.754">
      <tspan x="508.05" y="822.754">Modifier </tspan>
      <tspan x="508.05" y="838.754">un lieu</tspan>
    </text>
  </g>
  <g>
    <ellipse style="fill: #ffffff" cx="495.958" cy="914.254" rx="66.95" ry="32"/>
    <ellipse style="fill: none; fill-opacity:0; stroke-width: 2; stroke: #000000" cx="495.958" cy="914.254" rx="66.95" ry="32"/>
    <text style="fill: #000000;text-anchor:middle;font-size:12.7998;font-family:sanserif;font-style:normal;font-weight:normal" x="495.958" y="910.154">
      <tspan x="495.958" y="910.154">Supprimer</tspan>
      <tspan x="495.958" y="926.154">un lieu</tspan>
    </text>
  </g>
  <g>
    <polyline style="fill: none; fill-opacity:0; stroke-width: 2; stroke-dasharray: 8; stroke: #000000" points="467.834,741.84 431.972,741.84 431.972,793.444 402.815,793.444 "/>
    <polyline style="fill: none; fill-opacity:0; stroke-width: 2; stroke: #000000" points="415.463,788.444 399.463,793.444 415.463,798.444 "/>
  </g>
  <g>
    <polyline style="fill: none; fill-opacity:0; stroke-width: 2; stroke-dasharray: 8; stroke: #000000" points="451.193,826.854 423.651,826.854 423.651,793.444 402.815,793.444 "/>
    <polyline style="fill: none; fill-opacity:0; stroke-width: 2; stroke: #000000" points="415.463,788.444 399.463,793.444 415.463,798.444 "/>
  </g>
  <g>
    <polyline style="fill: none; fill-opacity:0; stroke-width: 2; stroke-dasharray: 8; stroke: #000000" points="495.958,881.261 495.958,873.574 314.85,873.574 314.85,827.899 "/>
    <polyline style="fill: none; fill-opacity:0; stroke-width: 2; stroke: #000000" points="319.85,840.546 314.85,824.546 309.85,840.546 "/>
  </g>
  <g>
    <ellipse style="fill: #ffffff" cx="127.26" cy="832.294" rx="101.3" ry="48"/>
    <ellipse style="fill: none; fill-opacity:0; stroke-width: 2; stroke: #000000" cx="127.26" cy="832.294" rx="101.3" ry="48"/>
    <text style="fill: #000000;text-anchor:middle;font-size:12.7998;font-family:sanserif;font-style:normal;font-weight:normal" x="127.26" y="820.194">
      <tspan x="127.26" y="820.194">Voir le planning</tspan>
      <tspan x="127.26" y="836.194">des professeurs</tspan>
      <tspan x="127.26" y="852.194">de son campus</tspan>
    </text>
  </g>
  <g>
    <path style="fill: none; fill-opacity:0; stroke-width: 2; stroke: #000000" d="M 167.624,637.015 A 413,413 0 0 0 129.221,772.34"/>
    <polygon style="fill: #000000" points="124.091,771.931 128.289,782.293 134.06,772.718 "/>
    <polygon style="fill: none; fill-opacity:0; stroke-width: 2; stroke: #000000" points="124.091,771.931 128.289,782.293 134.06,772.718 "/>
  </g>
  <g>
    <ellipse style="fill: #ffffff" cx="56.08" cy="245.51" rx="6" ry="6"/>
    <ellipse style="fill: none; fill-opacity:0; stroke-width: 2; stroke: #000000" cx="56.08" cy="245.51" rx="6" ry="6"/>
    <line style="fill: none; fill-opacity:0; stroke-width: 2; stroke: #000000" x1="32.08" y1="257.51" x2="80.08" y2="257.51"/>
    <line style="fill: none; fill-opacity:0; stroke-width: 2; stroke: #000000" x1="56.08" y1="251.51" x2="56.08" y2="281.51"/>
    <line style="fill: none; fill-opacity:0; stroke-width: 2; stroke: #000000" x1="56.08" y1="281.51" x2="32.08" y2="307.51"/>
    <line style="fill: none; fill-opacity:0; stroke-width: 2; stroke: #000000" x1="56.08" y1="281.51" x2="80.08" y2="307.51"/>
    <text style="fill: #000000;text-anchor:middle;font-size:12.7998;font-family:sanserif;font-style:normal;font-weight:normal" x="56.08" y="331.41">
      <tspan x="56.08" y="331.41">Administrateur</tspan>
    </text>
  </g>
  <g>
    <ellipse style="fill: #ffffff" cx="-161.68" cy="271.03" rx="78.6" ry="32"/>
    <ellipse style="fill: none; fill-opacity:0; stroke-width: 2; stroke: #000000" cx="-161.68" cy="271.03" rx="78.6" ry="32"/>
    <text style="fill: #000000;text-anchor:middle;font-size:12.7998;font-family:sanserif;font-style:normal;font-weight:normal" x="-161.68" y="266.93">
      <tspan x="-161.68" y="266.93">Ajouter une </tspan>
      <tspan x="-161.68" y="282.93">université</tspan>
    </text>
  </g>
  <g>
    <ellipse style="fill: #ffffff" cx="-156.99" cy="353.91" rx="66.65" ry="32"/>
    <ellipse style="fill: none; fill-opacity:0; stroke-width: 2; stroke: #000000" cx="-156.99" cy="353.91" rx="66.65" ry="32"/>
    <text style="fill: #000000;text-anchor:middle;font-size:12.7998;font-family:sanserif;font-style:normal;font-weight:normal" x="-156.99" y="349.81">
      <tspan x="-156.99" y="349.81">Ajouter un</tspan>
      <tspan x="-156.99" y="365.81">campus</tspan>
    </text>
  </g>
  <g>
    <polyline style="fill: none; fill-opacity:0; stroke-width: 2; stroke: #000000" points="145.885,181 132.64,181 132.64,281.51 103.752,281.51 "/>
    <polygon style="fill: #ffffff" points="145.885,189 161.885,181 145.885,173 "/>
    <polygon style="fill: none; fill-opacity:0; stroke-width: 2; stroke: #000000" points="145.885,189 161.885,181 145.885,173 "/>
  </g>
  <g>
    <ellipse style="fill: #ffffff" cx="-132.535" cy="185.559" rx="97.575" ry="32.525"/>
    <ellipse style="fill: none; fill-opacity:0; stroke-width: 2; stroke: #000000" cx="-132.535" cy="185.559" rx="97.575" ry="32.525"/>
    <text style="fill: #000000;text-anchor:middle;font-size:12.7998;font-family:sanserif;font-style:normal;font-weight:normal" x="-132.535" y="181.459">
      <tspan x="-132.535" y="181.459">Supprimer une </tspan>
      <tspan x="-132.535" y="197.459">université</tspan>
    </text>
  </g>
  <g>
    <ellipse style="fill: #ffffff" cx="-90.43" cy="420.554" rx="87.2" ry="32"/>
    <ellipse style="fill: none; fill-opacity:0; stroke-width: 2; stroke: #000000" cx="-90.43" cy="420.554" rx="87.2" ry="32"/>
    <text style="fill: #000000;text-anchor:middle;font-size:12.7998;font-family:sanserif;font-style:normal;font-weight:normal" x="-90.43" y="416.454">
      <tspan x="-90.43" y="416.454">Supprimer un</tspan>
      <tspan x="-90.43" y="432.454">campus</tspan>
    </text>
  </g>
  <g>
    <polyline style="fill: none; fill-opacity:0; stroke-width: 2; stroke: #000000" points="112.038,587.875 130.66,587.875 130.66,587.734 167.518,587.734 "/>
    <polygon style="fill: #ffffff" points="112.038,579.875 96.0379,587.875 112.038,595.875 "/>
    <polygon style="fill: none; fill-opacity:0; stroke-width: 2; stroke: #000000" points="112.038,579.875 96.0379,587.875 112.038,595.875 "/>
  </g>
  <g>
    <path style="fill: none; fill-opacity:0; stroke-width: 2; stroke: #000000" d="M 9.7699,239.545 A 289.89,289.89 0 0 0 -24.1691,218.308"/>
    <polygon style="fill: #000000" points="-21.8867,213.627 -33.0663,213.756 -26.2551,222.622 "/>
    <polygon style="fill: none; fill-opacity:0; stroke-width: 2; stroke: #000000" points="-21.8867,213.627 -33.0663,213.756 -26.2551,222.622 "/>
  </g>
  <g>
    <path style="fill: none; fill-opacity:0; stroke-width: 2; stroke: #000000" d="M 8.42315,265.245 A 307.058,307.058 0 0 0 -71.1994,255.973"/>
    <polygon style="fill: #000000" points="-71.4562,250.783 -81.1895,256.284 -70.9485,260.77 "/>
    <polygon style="fill: none; fill-opacity:0; stroke-width: 2; stroke: #000000" points="-71.4562,250.783 -81.1895,256.284 -70.9485,260.77 "/>
  </g>
  <g>
    <path style="fill: none; fill-opacity:0; stroke-width: 2; stroke: #000000" d="M 8.50232,283.831 A 326.504,326.504 0 0 0 -97.7985,315.853"/>
    <polygon style="fill: #000000" points="-100.266,311.292 -106.671,320.456 -95.4968,320.082 "/>
    <polygon style="fill: none; fill-opacity:0; stroke-width: 2; stroke: #000000" points="-100.266,311.292 -106.671,320.456 -95.4968,320.082 "/>
  </g>
  <g>
    <path style="fill: none; fill-opacity:0; stroke-width: 2; stroke: #000000" d="M 8.40958,305.682 A 264.989,264.989 0 0 0 -66.7315,378.379"/>
    <polygon style="fill: #000000" points="-71.1507,375.585 -72.247,386.712 -62.6881,380.913 "/>
    <polygon style="fill: none; fill-opacity:0; stroke-width: 2; stroke: #000000" points="-71.1507,375.585 -72.247,386.712 -62.6881,380.913 "/>
  </g>
</svg>
